<?xml version="1.0" standalone="no"?>
<!DOCTYPE svg PUBLIC "-//W3C//DTD SVG 20010904//EN"
 "http://www.w3.org/TR/2001/REC-SVG-20010904/DTD/svg10.dtd">
<svg version="1.0" xmlns="http://www.w3.org/2000/svg"
 width="370.000000pt" height="324.000000pt" viewBox="0 0 370.000000 324.000000"
 preserveAspectRatio="xMidYMid meet">

<g transform="translate(0.000000,324.000000) scale(0.100000,-0.100000)"
fill="#000000" stroke="none">
<path d="M0 3219 c0 -22 19 -20 70 7 24 13 23 13 -22 14 -42 0 -48 -3 -48 -21z"/>
<path d="M238 3226 c-19 -10 -45 -13 -80 -9 -69 7 -120 -14 -142 -58 -12 -24
-16 -61 -16 -151 0 -105 2 -118 18 -119 9 -1 77 -3 150 -5 126 -3 137 -2 183
21 26 14 60 25 73 25 14 0 41 14 59 30 41 35 83 40 92 10 4 -12 2 -27 -4 -33
-6 -8 -7 -26 -2 -49 12 -51 -1 -68 -52 -68 -23 -1 -53 -7 -66 -14 -14 -8 -31
-11 -39 -8 -18 7 -51 -35 -52 -65 0 -22 2 -23 88 -17 83 6 110 14 198 62 30
16 57 61 68 114 10 46 56 22 56 -31 0 -15 -16 -38 -47 -67 -40 -37 -44 -44
-27 -44 12 0 27 -7 34 -15 8 -10 21 -13 33 -9 31 10 156 5 178 -7 16 -8 19
-19 17 -57 -3 -52 -10 -48 85 -51 19 -1 30 -8 36 -25 5 -13 17 -26 26 -30 28
-10 79 -7 108 9 22 11 50 13 122 8 66 -4 103 -2 125 7 29 12 30 13 12 26 -24
16 -35 61 -15 61 8 0 13 -12 13 -30 0 -17 2 -28 4 -26 7 8 20 155 18 210 -1
40 2 60 13 69 8 7 15 22 15 34 0 12 6 31 14 42 12 17 12 25 2 45 -9 19 -19 24
-51 24 l-40 0 -1 45 c-1 25 -2 71 -2 103 l-2 57 -587 0 c-489 0 -593 -3 -615
-14z m507 -36 c3 -5 22 -10 41 -10 19 0 34 -5 34 -11 0 -6 -9 -8 -21 -4 -32
11 -69 -3 -69 -25 0 -10 -5 -22 -11 -26 -7 -4 -9 -22 -6 -44 6 -50 -7 -70 -47
-70 -43 0 -48 7 -31 40 8 15 13 46 12 70 -1 35 3 46 26 66 29 25 61 31 72 14z
m743 -385 c-3 -3 -9 2 -12 12 -6 14 -5 15 5 6 7 -7 10 -15 7 -18z m-29 -31 c3
-3 0 -9 -7 -16 -8 -8 -15 -8 -27 2 -22 19 -18 32 8 24 12 -3 24 -8 26 -10z
m-122 -36 c17 -14 6 -35 -28 -48 -24 -10 -33 -10 -55 5 -24 16 -25 18 -9 35
26 29 61 32 92 8z m-134 -16 c15 -6 16 -10 4 -25 -9 -14 -20 -17 -40 -12 -28
7 -36 30 -14 38 17 7 29 7 50 -1z m257 -33 c0 -14 -27 -10 -33 5 -4 10 0 12
14 9 10 -3 19 -9 19 -14z"/>
<path d="M1788 3198 c-1 -24 -1 -62 1 -86 2 -38 -1 -43 -26 -53 -15 -6 -43
-22 -61 -35 -28 -22 -31 -27 -17 -40 22 -23 78 -40 83 -26 2 7 8 12 13 12 4 0
6 -6 3 -14 -4 -10 27 -18 138 -36 87 -13 156 -29 176 -41 l34 -19 30 25 c16
14 34 25 39 25 5 0 4 10 -3 23 -7 12 -11 25 -10 29 1 4 -14 15 -33 24 -49 23
-49 29 -2 29 163 0 267 24 267 60 0 7 7 27 16 45 16 31 16 34 -1 47 -11 7 -27
13 -37 13 -10 0 -27 6 -38 12 -16 10 -24 10 -40 0 -11 -6 -26 -12 -34 -12 -17
0 -48 39 -40 52 3 4 -99 8 -225 8 l-231 0 -2 -42z m-33 -228 c3 -5 1 -10 -4
-10 -6 0 -11 5 -11 10 0 6 2 10 4 10 3 0 8 -4 11 -10z m419 -46 c7 -19 2 -18
-19 6 -16 17 -16 20 -3 15 9 -4 19 -13 22 -21z"/>
<path d="M2408 3228 c16 -8 28 -8 45 0 19 9 17 11 -23 11 -40 0 -42 -2 -22
-11z"/>
<path d="M2726 3074 c-5 -14 -4 -15 9 -4 17 14 19 20 6 20 -5 0 -12 -7 -15
-16z"/>
<path d="M3610 3035 c-13 -14 -21 -27 -19 -30 3 -2 17 9 31 25 32 36 21 40
-12 5z"/>
<path d="M3253 3008 c-21 -3 -53 -13 -71 -21 -23 -9 -48 -11 -80 -6 -26 4 -52
3 -59 -3 -6 -5 -22 -6 -35 -3 -18 5 -25 2 -25 -8 0 -11 12 -15 45 -14 40 2 47
-1 62 -27 23 -43 43 -52 82 -39 18 6 86 11 150 12 64 0 126 4 137 10 17 10 18
15 7 50 -6 22 -15 43 -19 48 -10 10 -141 11 -194 1z"/>
<path d="M2768 2985 c-4 -5 -277 -26 -373 -29 l-30 -1 3 -57 4 -56 121 4 c67
3 138 6 157 8 19 1 74 3 121 4 96 2 129 16 111 47 -7 13 -7 24 1 36 20 33 2
49 -56 49 -30 0 -56 -2 -59 -5z"/>
<path d="M3669 2971 c7 -5 17 -15 22 -22 6 -10 9 -8 9 9 0 16 -6 22 -22 22
-17 0 -19 -3 -9 -9z"/>
<path d="M155 2789 c-16 -5 -52 -9 -80 -8 -69 1 -75 0 -75 -11 0 -5 11 -10 25
-10 15 0 39 -7 55 -15 17 -9 69 -17 127 -20 88 -4 96 -3 79 10 -11 8 -25 15
-30 15 -6 0 -2 7 8 15 11 8 17 18 13 21 -11 11 -91 14 -122 3z"/>
<path d="M3546 2781 c-3 -5 4 -11 16 -15 18 -4 20 -8 10 -18 -20 -20 -14 -40
11 -36 40 5 27 78 -14 78 -10 0 -20 -4 -23 -9z"/>
<path d="M3400 2707 l-25 -11 28 -4 c33 -4 57 3 57 18 0 13 -28 12 -60 -3z"/>
<path d="M742 2614 c10 -10 23 -14 34 -10 16 6 16 8 4 16 -8 6 -24 10 -35 10
-18 0 -18 -1 -3 -16z"/>
<path d="M3485 2595 c-171 -12 -182 -14 -226 -41 -26 -16 -56 -43 -67 -60 -12
-19 -42 -41 -72 -55 -47 -21 -51 -26 -48 -54 2 -16 8 -29 14 -28 5 1 120 6
255 12 134 6 270 14 302 17 l57 6 0 109 c0 98 -2 109 -17 108 -10 -1 -99 -7
-198 -14z"/>
<path d="M1540 2550 c0 -5 5 -10 11 -10 5 0 7 5 4 10 -3 6 -8 10 -11 10 -2 0
-4 -4 -4 -10z"/>
<path d="M455 2530 c3 -5 12 -7 20 -3 21 7 19 13 -6 13 -11 0 -18 -4 -14 -10z"/>
<path d="M2280 2514 c-51 -12 -114 -14 -290 -11 -124 3 -232 8 -241 11 -9 4
-25 -2 -38 -13 l-22 -19 58 -19 c33 -11 57 -24 55 -31 -1 -7 4 -12 12 -12 7 0
19 -6 25 -14 16 -19 3 -26 -68 -41 -44 -10 -52 -14 -36 -20 76 -30 89 -38 75
-43 -15 -5 -30 -22 -30 -34 0 -4 20 -16 45 -27 43 -19 62 -51 31 -51 -20 0
-76 -67 -76 -92 0 -19 4 -20 52 -15 28 4 56 11 62 17 16 16 32 12 66 -20 l32
-30 -33 -1 c-19 0 -43 -4 -54 -9 -13 -5 -26 -3 -38 8 -16 14 -19 13 -43 -9
-21 -20 -25 -30 -20 -59 7 -45 29 -60 88 -60 54 0 58 -4 26 -30 l-22 -17 23
-13 c13 -7 37 -9 55 -6 22 4 27 3 16 -4 -30 -20 -88 -10 -156 25 -37 19 -69
35 -71 35 -2 0 5 -10 17 -22 27 -30 25 -62 -6 -87 -14 -11 -26 -29 -27 -40 -1
-16 -6 -20 -22 -15 -20 6 64 -61 122 -97 l32 -20 62 25 c110 45 159 97 159
169 0 19 -7 40 -15 47 -21 18 -19 27 20 80 43 59 141 262 149 311 l6 36 59 2
c33 1 75 6 93 11 18 6 60 10 93 11 33 1 71 4 84 8 23 6 25 10 22 70 -3 68 -15
111 -34 123 -21 13 -229 7 -297 -8z m-234 -326 c5 -16 1 -27 -15 -39 -27 -22
-26 -27 2 -32 19 -4 19 -4 -5 -6 -15 0 -30 4 -33 9 -3 6 -24 10 -46 10 -56 0
-52 28 8 67 52 34 76 31 89 -9z m-106 -188 c11 -7 5 -10 -22 -10 -21 0 -38 5
-38 10 0 13 40 13 60 0z"/>
<path d="M1553 2483 c9 -2 17 -11 17 -20 0 -13 -3 -13 -16 -2 -13 10 -17 10
-25 -2 -12 -20 -11 -29 4 -29 7 0 4 -7 -7 -15 -24 -18 -40 -19 -33 -2 17 46
18 57 4 57 -9 0 -20 -12 -25 -27 l-10 -28 -1 28 c-1 25 -4 27 -38 26 -49 0
-131 -14 -140 -22 -3 -4 -1 -17 6 -30 9 -17 11 -106 9 -350 -2 -180 -1 -327 1
-327 18 0 180 99 187 114 5 12 15 21 23 21 8 0 28 14 45 31 17 17 37 33 44 35
7 2 15 28 19 57 5 49 3 56 -33 110 -21 31 -46 74 -56 94 -15 33 -15 39 -2 46
12 7 11 13 -9 43 -26 39 -41 73 -28 64 5 -3 12 1 14 7 4 8 6 7 6 -3 1 -16 20
-29 42 -29 5 0 9 8 9 18 0 10 5 23 12 30 9 9 8 16 -5 30 -22 24 -21 31 3 25
16 -4 20 -14 20 -45 0 -24 4 -37 10 -33 6 4 9 9 6 13 -2 4 0 30 3 59 8 57 3
64 -47 62 -17 -1 -21 -3 -9 -6z m-76 -95 c-3 -8 -6 -5 -6 6 -1 11 2 17 5 13 3
-3 4 -12 1 -19z"/>
<path d="M2714 2472 c-25 -17 -23 -54 4 -81 15 -14 26 -29 24 -33 -1 -5 34 -8
77 -8 44 0 83 -4 86 -10 10 -17 51 -11 70 10 16 18 16 21 1 44 -8 14 -36 39
-60 55 -40 28 -52 31 -118 31 -40 0 -78 -4 -84 -8z"/>
<path d="M755 2439 c-77 -4 -234 -12 -350 -18 -116 -6 -254 -14 -307 -17 l-98
-7 0 -99 0 -99 53 5 c28 3 221 10 427 16 479 13 597 19 609 34 6 7 13 39 17
72 3 32 13 69 21 82 7 12 11 27 8 32 -7 11 -171 11 -380 -1z"/>
<path d="M3039 2123 c-18 -41 -18 -48 -4 -55 26 -15 18 -56 -14 -73 -37 -19
-42 -27 -46 -73 -2 -20 -7 -67 -10 -104 -4 -36 -12 -74 -20 -84 -13 -18 -14
-18 -32 -1 -24 21 -37 21 -57 1 -25 -24 -19 -42 18 -58 27 -11 37 -23 45 -53
6 -21 11 -45 11 -54 0 -9 6 -22 14 -28 10 -9 29 -3 84 24 65 33 71 40 96 94
15 35 26 77 26 103 0 68 55 116 80 69 26 -50 -3 -185 -53 -240 -19 -21 -38
-48 -41 -59 -7 -21 -61 -46 -78 -36 -13 8 -98 -25 -98 -37 0 -51 57 -63 110
-24 34 25 110 35 136 17 18 -12 34 -49 34 -81 0 -26 6 -31 45 -47 58 -22 56
-43 -4 -58 -55 -14 -63 -42 -25 -91 53 -70 143 -71 289 -5 48 21 95 21 125 0
l29 -21 1 356 c0 276 -3 359 -13 369 -36 36 -94 45 -81 13 6 -17 -22 -31 -32
-15 -4 5 0 14 7 19 8 5 10 9 4 9 -5 0 -3 5 5 10 13 9 13 11 0 20 -8 6 -32 15
-52 20 -21 6 -41 17 -45 24 -4 7 -22 20 -38 29 -17 8 -39 25 -50 37 -11 12
-40 31 -65 42 -25 10 -63 29 -85 41 -28 14 -58 21 -99 22 -38 0 -61 5 -64 13
-8 26 -34 10 -53 -35z m101 -18 c0 -8 -4 -15 -10 -15 -5 0 -7 7 -4 15 4 8 8
15 10 15 2 0 4 -7 4 -15z m-55 -175 c3 -5 -1 -10 -10 -10 -9 0 -13 5 -10 10 3
6 8 10 10 10 2 0 7 -4 10 -10z m571 -195 c10 -26 -5 -62 -28 -68 -46 -12 -87
40 -56 71 17 17 77 15 84 -3z"/>
<path d="M2755 2072 c-11 -3 -33 -15 -48 -28 -16 -14 -42 -24 -58 -24 -24 0
-32 -6 -41 -30 -5 -17 -15 -30 -22 -29 -28 3 -45 -3 -71 -27 -15 -14 -25 -28
-21 -31 3 -3 -9 -13 -27 -23 -22 -11 -42 -36 -65 -80 -18 -35 -38 -68 -45 -72
-6 -4 -7 -8 -2 -8 6 0 4 -4 -3 -9 -9 -5 20 -22 85 -52 116 -52 215 -131 233
-184 13 -40 15 -40 61 -21 39 16 62 9 95 -32 l21 -26 17 32 c27 53 12 81 -66
122 -23 12 -38 28 -38 39 0 10 -10 30 -23 45 -33 38 -52 119 -37 155 10 26 46
51 70 51 12 0 50 -32 50 -42 0 -5 8 -16 18 -26 16 -16 21 -17 39 -5 18 12 19
19 12 65 -5 28 -4 58 0 67 10 18 -18 61 -39 61 -7 0 -10 7 -7 18 19 59 19 62
4 62 -8 0 -20 6 -26 14 -14 17 -39 24 -66 18z m65 -146 c0 -28 -26 -42 -47
-24 -13 11 -12 15 7 30 30 24 40 23 40 -6z m-217 -126 c3 -13 0 -20 -9 -20 -8
0 -14 2 -14 4 0 2 -3 11 -6 20 -4 10 -1 16 9 16 8 0 17 -9 20 -20z"/>
<path d="M2255 1744 c20 -15 35 -15 38 0 1 5 -11 10 -28 12 -28 3 -29 2 -10
-12z"/>
<path d="M1560 1591 c-6 -12 -8 -27 -4 -34 4 -6 4 -9 -1 -5 -13 12 -139 -185
-155 -243 -11 -37 21 -53 90 -47 28 3 53 2 55 -2 2 -4 -33 -36 -80 -73 l-83
-65 -15 46 c-8 26 -18 59 -21 75 -4 15 -11 27 -17 27 -6 0 -9 -9 -6 -20 3 -11
1 -23 -4 -26 -6 -4 -6 -10 -1 -17 12 -14 17 -92 12 -152 -3 -30 8 -123 16
-136 4 -7 8 -21 9 -33 1 -11 3 -24 4 -28 3 -22 111 24 160 70 11 9 54 46 96
82 l76 65 -4 48 c-3 39 -1 50 14 58 23 12 24 42 3 63 -14 14 -21 13 -77 -14
-69 -34 -55 -19 43 43 50 33 65 48 65 66 0 14 -6 26 -12 29 -7 2 -13 -4 -13
-13 0 -12 -6 -15 -20 -10 -28 9 -102 -15 -123 -39 -10 -12 -16 -16 -13 -10 3
7 -3 10 -17 7 -29 -6 -53 37 -37 66 5 10 6 21 2 25 -3 4 1 4 10 1 9 -4 19 -1
24 6 5 8 3 10 -6 4 -10 -6 -12 0 -6 31 5 21 8 47 9 56 1 9 4 15 7 13 12 -7 52
87 41 98 -6 6 -13 2 -21 -12z m-50 -311 c0 -5 -10 -10 -22 -9 -22 0 -22 1 -3
9 11 5 21 9 23 9 1 1 2 -3 2 -9z m165 -140 c3 -5 0 -10 -8 -10 -8 0 -31 -11
-52 -25 -52 -36 -56 -23 -4 14 45 33 54 36 64 21z m-171 -49 c-14 -14 -39 -17
-42 -6 -2 6 7 13 20 16 27 7 36 3 22 -10z"/>
<path d="M1584 1488 c-3 -13 -13 -31 -22 -41 -8 -9 -13 -19 -10 -22 3 -3 12 5
20 17 17 26 32 68 24 68 -2 0 -8 -10 -12 -22z"/>
<path d="M490 1390 c0 -5 9 -10 20 -10 11 0 20 5 20 10 0 6 -9 10 -20 10 -11
0 -20 -4 -20 -10z"/>
<path d="M32 1262 c-31 -3 -32 -5 -32 -47 0 -35 3 -43 15 -39 19 8 19 0 -1
-37 -13 -27 -14 -33 -1 -53 11 -16 12 -27 5 -40 -13 -23 -2 -33 44 -41 35 -7
39 -5 55 25 10 18 28 44 39 59 19 22 24 24 38 12 15 -13 15 -16 -9 -41 -28
-29 -34 -70 -10 -70 18 0 19 -12 3 -28 -16 -16 -28 -15 -28 3 0 12 -11 14 -56
10 -88 -9 -94 -16 -94 -112 0 -81 5 -94 26 -73 17 17 38 -14 26 -37 -5 -10
-13 -37 -17 -60 -7 -43 -7 -43 24 -43 32 0 39 -8 21 -26 -15 -15 22 -46 44
-38 9 3 16 17 16 30 0 13 4 33 9 46 5 13 12 35 15 50 4 15 16 37 28 48 26 23
38 18 16 -7 -20 -23 -29 -55 -20 -69 4 -6 34 -15 66 -20 65 -10 89 -31 70 -61
-19 -31 -42 -39 -66 -24 -20 12 -24 11 -43 -13 -11 -14 -30 -26 -41 -26 -21 0
-54 -28 -54 -47 0 -5 11 -15 25 -21 22 -10 27 -9 40 12 11 16 22 22 36 19 14
-4 22 0 26 15 2 11 15 23 26 26 37 10 41 7 22 -14 -12 -14 -14 -20 -5 -20 9 0
11 -11 6 -40 -5 -33 -3 -40 10 -40 9 0 18 9 21 20 6 23 38 27 47 5 7 -19 33
-19 69 0 19 10 26 10 22 2 -4 -7 1 -3 9 8 9 11 14 25 11 33 -2 7 -1 11 4 7 14
-8 50 43 61 89 18 72 41 126 65 155 13 15 45 76 70 136 26 60 57 122 70 140
24 31 53 131 41 142 -3 4 -6 -1 -6 -10 0 -13 -5 -14 -30 -6 -35 13 -34 10 -18
44 7 17 8 29 2 35 -19 19 -586 44 -712 32z"/>
<path d="M2931 1078 c-59 -8 -74 -14 -78 -29 -6 -20 -32 -25 -48 -10 -6 5 -25
12 -44 16 -32 7 -34 6 -28 -16 4 -13 7 -33 7 -44 0 -15 11 -24 40 -33 36 -11
46 -10 90 9 47 20 87 21 136 2 8 -3 17 4 23 18 10 27 37 53 64 62 25 9 21 27
-7 27 -13 0 -36 2 -52 4 -16 2 -62 -1 -103 -6z"/>
<path d="M1277 981 c-3 -11 0 -22 7 -25 7 -3 7 -5 -2 -5 -7 -1 -17 9 -22 22
-8 21 -9 21 -9 1 -1 -11 -10 -30 -21 -42 -11 -12 -20 -27 -20 -34 0 -7 -7 -22
-15 -32 -8 -11 -15 -27 -15 -37 0 -9 -8 -27 -19 -40 -18 -23 -18 -23 -29 -2
-6 11 -9 23 -6 25 2 3 -3 11 -12 19 -14 12 -19 10 -39 -13 -15 -17 -21 -35
-18 -48 8 -30 19 -33 50 -14 l28 17 -28 -29 c-27 -28 -29 -28 -42 -10 -8 10
-27 33 -43 51 -17 18 -33 41 -36 51 -3 11 -4 2 -1 -19 5 -45 64 -146 106 -182
37 -30 42 -27 94 50 19 29 56 75 82 100 44 44 62 89 41 101 -5 3 -6 10 -2 15
3 5 2 15 -3 22 -5 7 -10 25 -11 41 -3 37 -8 43 -15 17z"/>
<path d="M3007 934 c-11 -11 -8 -49 5 -62 20 -20 58 -15 58 8 0 11 -5 20 -11
20 -6 0 -18 9 -28 21 -9 11 -20 17 -24 13z"/>
<path d="M3288 886 c-13 -31 -1 -50 26 -40 11 4 16 15 14 32 -4 35 -25 39 -40
8z"/>
<path d="M3486 895 c-8 -21 3 -45 20 -45 20 0 29 27 14 45 -16 19 -26 19 -34
0z"/>
<path d="M3200 850 c-13 -9 -13 -12 3 -24 9 -7 28 -11 42 -8 27 5 35 22 10 22
-8 0 -15 5 -15 10 0 13 -21 13 -40 0z"/>
<path d="M2780 813 c0 -39 35 -180 47 -190 8 -6 12 -16 9 -21 -3 -5 4 -32 14
-61 11 -28 20 -71 20 -95 l0 -43 43 -7 c23 -3 52 -9 64 -12 21 -6 22 -4 17 24
-6 27 -3 31 26 37 36 8 56 -3 22 -12 -31 -8 -24 -35 11 -47 26 -9 151 4 164
18 12 11 15 173 4 180 -38 24 34 37 83 15 19 -9 29 -8 47 5 34 23 140 22 162
-2 10 -10 15 -22 12 -25 -3 -4 -2 -5 2 -2 3 3 11 -1 17 -8 6 -7 10 -10 9 -8
-2 2 3 11 10 19 10 13 9 14 -3 8 -8 -4 -4 2 10 13 14 11 33 21 42 21 24 0 30
15 17 44 -10 22 -9 29 6 46 17 19 16 19 -91 16 -110 -3 -198 9 -188 25 3 5 1
9 -5 9 -5 0 -12 -6 -15 -12 -5 -10 -7 -10 -12 0 -3 6 -10 12 -15 12 -6 0 -7
-4 -4 -10 4 -6 -21 -10 -69 -10 -79 0 -116 8 -96 20 7 5 3 12 -13 23 -33 21
-174 28 -203 10 -18 -12 -24 -11 -47 7 -28 22 -62 26 -73 9 -4 -8 -9 -7 -15 2
-6 10 -9 10 -9 2z"/>
<path d="M3207 793 c-10 -9 -8 -33 2 -33 5 0 11 9 14 20 5 20 -3 26 -16 13z"/>
<path d="M2515 651 c3 -35 5 -87 5 -115 l1 -51 24 40 c27 44 32 60 13 49 -7
-5 -9 -2 -6 7 3 8 -1 31 -10 50 -9 18 -19 45 -24 59 -4 15 -5 -2 -3 -39z"/>
<path d="M180 621 c0 -6 5 -13 10 -16 6 -3 10 1 10 9 0 9 -4 16 -10 16 -5 0
-10 -4 -10 -9z"/>
<path d="M120 550 c0 -5 5 -10 10 -10 6 0 10 5 10 10 0 6 -4 10 -10 10 -5 0
-10 -4 -10 -10z"/>
<path d="M80 540 c0 -5 5 -10 10 -10 6 0 10 5 10 10 0 6 -4 10 -10 10 -5 0
-10 -4 -10 -10z"/>
<path d="M3437 503 c-3 -5 1 -14 9 -21 11 -10 15 -8 24 8 9 17 8 20 -9 20 -11
0 -22 -3 -24 -7z"/>
<path d="M2650 480 c-11 -8 -7 -9 15 -4 37 8 45 14 19 14 -10 0 -26 -5 -34
-10z"/>
<path d="M2240 466 c0 -2 8 -10 18 -17 15 -13 16 -12 3 4 -13 16 -21 21 -21
13z"/>
<path d="M2126 355 c4 -8 8 -15 10 -15 2 0 4 7 4 15 0 8 -4 15 -10 15 -5 0 -7
-7 -4 -15z"/>
<path d="M295 328 c4 -18 9 -35 11 -37 2 -2 19 4 39 13 19 9 40 14 46 10 8 -5
8 -1 0 14 -13 25 -35 34 -50 19 -8 -8 -14 -8 -23 1 -21 21 -30 13 -23 -20z"/>
<path d="M2037 319 c-9 -20 -17 -57 -18 -82 -2 -26 -7 -47 -12 -47 -5 0 -4 -7
4 -16 12 -14 14 -14 21 5 9 25 38 28 38 4 0 -10 -7 -31 -15 -46 -14 -27 -13
-30 16 -54 17 -14 49 -39 72 -54 l42 -29 171 0 c148 0 173 2 178 16 9 22 8 24
-9 24 -8 0 -15 5 -15 10 0 6 -10 10 -23 10 -13 0 -32 7 -43 15 -10 8 -31 15
-46 15 -29 0 -68 30 -68 53 0 6 -19 20 -43 30 -39 17 -40 19 -22 29 11 6 25
18 31 26 9 12 24 13 73 8 35 -4 74 -12 87 -18 21 -10 28 -8 52 15 16 15 37 27
48 27 10 0 25 4 33 9 12 8 12 12 2 25 -16 19 -119 22 -202 5 -30 -6 -60 -12
-67 -13 -8 -1 -17 -8 -21 -15 -9 -15 -97 -42 -106 -33 -3 4 -2 -5 3 -18 10
-28 5 -53 -9 -44 -5 3 -9 -2 -9 -10 0 -10 6 -13 15 -10 22 9 18 -14 -5 -26
-15 -8 -19 -18 -15 -38 5 -26 5 -26 -9 3 -8 17 -17 47 -21 68 -7 37 1 45 39
38 5 -1 4 4 -2 12 -7 8 -9 16 -6 19 3 3 1 9 -5 13 -6 3 -11 1 -11 -6 0 -9 -3
-10 -11 -2 -5 5 -10 29 -11 52 0 47 -9 51 -32 16 -9 -14 -22 -25 -29 -25 -8 0
-7 4 3 10 13 8 13 11 -1 22 -9 7 -19 20 -22 28 -3 10 -10 3 -20 -21z m96 -174
c3 -7 -2 -24 -11 -36 -16 -19 -19 -19 -31 -6 -9 12 -10 21 -1 36 12 24 35 27
43 6z m227 -85 c0 -5 -4 -10 -9 -10 -6 0 -13 5 -16 10 -3 6 1 10 9 10 9 0 16
-4 16 -10z"/>
<path d="M2960 322 c-16 -5 -30 -21 -30 -34 0 -17 40 -7 50 11 11 22 3 31 -20
23z"/>
<path d="M3150 321 c-19 -4 -43 -12 -53 -17 -18 -10 -18 -12 -2 -27 9 -10 24
-17 34 -17 30 0 78 29 84 50 6 22 -1 23 -63 11z"/>
<path d="M404 297 c-3 -9 -1 -24 4 -33 9 -16 10 -15 17 5 8 27 -11 54 -21 28z"/>
<path d="M1060 255 c-9 -8 -34 -25 -57 -37 -67 -37 -168 -109 -164 -116 6 -10
75 -61 83 -62 3 0 4 14 1 31 -6 43 9 51 88 43 78 -7 79 -7 70 89 -5 61 -8 66
-21 52z"/>
</g>
</svg>
